<svg width="28" height="28" viewBox="0 0 28 28" fill="none" xmlns="http://www.w3.org/2000/svg">
<path opacity="0.2" d="M20.5629 16.5626L14.5375 18.7829L12.3171 24.8084C12.2558 24.9746 12.145 25.1179 11.9997 25.2192C11.8544 25.3204 11.6816 25.3747 11.5045 25.3747C11.3274 25.3747 11.1545 25.3204 11.0092 25.2192C10.8639 25.1179 10.7532 24.9746 10.6918 24.8084L8.47152 18.7829L2.44605 16.5626C2.2799 16.5013 2.13655 16.3905 2.0353 16.2452C1.93404 16.0999 1.87976 15.9271 1.87976 15.75C1.87976 15.5729 1.93404 15.4 2.0353 15.2547C2.13655 15.1094 2.2799 14.9986 2.44605 14.9373L8.47152 12.717L10.6918 6.69153C10.7532 6.52539 10.8639 6.38203 11.0092 6.28078C11.1545 6.17953 11.3274 6.12524 11.5045 6.12524C11.6816 6.12524 11.8544 6.17953 11.9997 6.28078C12.145 6.38203 12.2558 6.52539 12.3171 6.69153L14.5375 12.717L20.5629 14.9373C20.7291 14.9986 20.8724 15.1094 20.9737 15.2547C21.0749 15.4 21.1292 15.5729 21.1292 15.75C21.1292 15.9271 21.0749 16.0999 20.9737 16.2452C20.8724 16.3905 20.7291 16.5013 20.5629 16.5626Z" fill="#EAB308"/>
<path d="M20.8648 14.1159L15.2232 12.0312L13.1451 6.38531C13.022 6.05098 12.7994 5.76245 12.5072 5.55864C12.215 5.35483 11.8673 5.24555 11.511 5.24555C11.1548 5.24555 10.8071 5.35483 10.5149 5.55864C10.2227 5.76245 10 6.05098 9.87695 6.38531L7.7857 12.0312L2.13976 14.1094C1.80543 14.2324 1.5169 14.4551 1.31309 14.7473C1.10928 15.0395 1 15.3872 1 15.7434C1 16.0997 1.10928 16.4474 1.31309 16.7396C1.5169 17.0318 1.80543 17.2544 2.13976 17.3775L7.7857 19.4687L9.86382 25.1147C9.98689 25.449 10.2095 25.7375 10.5017 25.9414C10.7939 26.1452 11.1416 26.2544 11.4979 26.2544C11.8541 26.2544 12.2018 26.1452 12.494 25.9414C12.7862 25.7375 13.0089 25.449 13.1319 25.1147L15.2232 19.4687L20.8691 17.3906C21.2035 17.2676 21.492 17.0449 21.6958 16.7527C21.8996 16.4605 22.0089 16.1128 22.0089 15.7566C22.0089 15.4003 21.8996 15.0526 21.6958 14.7604C21.492 14.4682 21.2035 14.2456 20.8691 14.1225L20.8648 14.1159ZM14.2388 17.9616C14.12 18.0053 14.0122 18.0744 13.9227 18.1639C13.8332 18.2534 13.7642 18.3612 13.7204 18.48L11.5044 24.4836L9.29288 18.4844C9.24918 18.3644 9.17973 18.2554 9.08941 18.165C8.99909 18.0747 8.89009 18.0053 8.77007 17.9616L2.77085 15.75L8.77007 13.5384C8.89009 13.4947 8.99909 13.4253 9.08941 13.335C9.17973 13.2446 9.24918 13.1356 9.29288 13.0156L11.5044 7.01641L13.716 13.0156C13.7598 13.1344 13.8288 13.2423 13.9183 13.3318C14.0078 13.4213 14.1157 13.4903 14.2344 13.5341L20.238 15.75L14.2388 17.9616ZM15.0044 4.375C15.0044 4.14294 15.0966 3.92038 15.2607 3.75628C15.4248 3.59219 15.6474 3.5 15.8794 3.5H17.6294V1.75C17.6294 1.51794 17.7216 1.29538 17.8857 1.13128C18.0498 0.967187 18.2724 0.875 18.5044 0.875C18.7365 0.875 18.9591 0.967187 19.1232 1.13128C19.2873 1.29538 19.3794 1.51794 19.3794 1.75V3.5H21.1294C21.3615 3.5 21.5841 3.59219 21.7482 3.75628C21.9123 3.92038 22.0044 4.14294 22.0044 4.375C22.0044 4.60706 21.9123 4.82962 21.7482 4.99372C21.5841 5.15781 21.3615 5.25 21.1294 5.25H19.3794V7C19.3794 7.23206 19.2873 7.45462 19.1232 7.61872C18.9591 7.78281 18.7365 7.875 18.5044 7.875C18.2724 7.875 18.0498 7.78281 17.8857 7.61872C17.7216 7.45462 17.6294 7.23206 17.6294 7V5.25H15.8794C15.6474 5.25 15.4248 5.15781 15.2607 4.99372C15.0966 4.82962 15.0044 4.60706 15.0044 4.375ZM26.3794 9.625C26.3794 9.85706 26.2873 10.0796 26.1232 10.2437C25.9591 10.4078 25.7365 10.5 25.5044 10.5H24.6294V11.375C24.6294 11.6071 24.5373 11.8296 24.3732 11.9937C24.2091 12.1578 23.9865 12.25 23.7544 12.25C23.5224 12.25 23.2998 12.1578 23.1357 11.9937C22.9716 11.8296 22.8794 11.6071 22.8794 11.375V10.5H22.0044C21.7724 10.5 21.5498 10.4078 21.3857 10.2437C21.2216 10.0796 21.1294 9.85706 21.1294 9.625C21.1294 9.39293 21.2216 9.17038 21.3857 9.00628C21.5498 8.84219 21.7724 8.75 22.0044 8.75H22.8794V7.875C22.8794 7.64294 22.9716 7.42038 23.1357 7.25628C23.2998 7.09219 23.5224 7 23.7544 7C23.9865 7 24.2091 7.09219 24.3732 7.25628C24.5373 7.42038 24.6294 7.64294 24.6294 7.875V8.75H25.5044C25.7365 8.75 25.9591 8.84219 26.1232 9.00628C26.2873 9.17038 26.3794 9.39293 26.3794 9.625Z" fill="#EAB308"/>
</svg>
