<svg width="28" height="28" viewBox="0 0 28 28" fill="none" xmlns="http://www.w3.org/2000/svg">
<path opacity="0.2" d="M14.251 11.375C13.3857 11.375 12.5398 11.1184 11.8204 10.6377C11.1009 10.1569 10.5401 9.47367 10.209 8.67424C9.87787 7.87481 9.79123 6.99515 9.96004 6.14648C10.1289 5.29782 10.5455 4.51826 11.1574 3.90641C11.7692 3.29456 12.5488 2.87788 13.3975 2.70907C14.2461 2.54026 15.1258 2.6269 15.9252 2.95803C16.7246 3.28916 17.4079 3.84992 17.8887 4.56938C18.3694 5.28885 18.626 6.13471 18.626 7C18.626 8.16032 18.165 9.27312 17.3446 10.0936C16.5241 10.9141 15.4113 11.375 14.251 11.375ZM21.251 14C20.3857 14 19.5398 14.2566 18.8204 14.7373C18.1009 15.2181 17.5401 15.9013 17.209 16.7008C16.8779 17.5002 16.7912 18.3799 16.96 19.2285C17.1289 20.0772 17.5455 20.8567 18.1574 21.4686C18.7692 22.0804 19.5488 22.4971 20.3975 22.6659C21.2461 22.8347 22.1258 22.7481 22.9252 22.417C23.7246 22.0858 24.4079 21.5251 24.8887 20.8056C25.3694 20.0862 25.626 19.2403 25.626 18.375C25.626 17.2147 25.165 16.1019 24.3446 15.2814C23.5241 14.4609 22.4113 14 21.251 14ZM7.25098 14C6.38569 14 5.53982 14.2566 4.82036 14.7373C4.10089 15.2181 3.54014 15.9013 3.20901 16.7008C2.87787 17.5002 2.79123 18.3799 2.96004 19.2285C3.12885 20.0772 3.54553 20.8567 4.15739 21.4686C4.76924 22.0804 5.54879 22.4971 6.39746 22.6659C7.24613 22.8347 8.12579 22.7481 8.92522 22.417C9.72465 22.0858 10.4079 21.5251 10.8887 20.8056C11.3694 20.0862 11.626 19.2403 11.626 18.375C11.626 17.2147 11.165 16.1019 10.3446 15.2814C9.5241 14.4609 8.4113 14 7.25098 14Z" fill="#EE3038"/>
<path d="M19.7372 20.497H12.4266C12.2942 21.2807 11.9855 22.0241 11.5239 22.6712C11.0623 23.3183 10.4598 23.852 9.76187 24.2323C9.06392 24.6126 8.28874 24.8295 7.49477 24.8665C6.70081 24.9036 5.9088 24.7599 5.17846 24.4463C4.44812 24.1326 3.79853 23.6573 3.27867 23.056C2.75881 22.4548 2.38224 21.7434 2.17738 20.9754C1.97252 20.2074 1.9447 19.403 2.09603 18.6227C2.24736 17.8424 2.57389 17.1066 3.05098 16.4709C3.19036 16.2853 3.39779 16.1626 3.62762 16.1299C3.85746 16.0972 4.09088 16.1571 4.27653 16.2965C4.46218 16.4359 4.58486 16.6433 4.61757 16.8731C4.65029 17.103 4.59037 17.3364 4.45098 17.522C3.99439 18.1267 3.74851 18.8643 3.75098 19.622C3.75098 20.5503 4.11973 21.4405 4.77611 22.0969C5.43248 22.7533 6.32272 23.122 7.25098 23.122C8.17924 23.122 9.06948 22.7533 9.72586 22.0969C10.3822 21.4405 10.751 20.5503 10.751 19.622C10.751 19.39 10.8432 19.1674 11.0073 19.0033C11.1714 18.8392 11.3939 18.747 11.626 18.747H19.7372C19.9298 18.4134 20.2272 18.1527 20.5831 18.0052C20.939 17.8578 21.3336 17.8319 21.7057 17.9316C22.0778 18.0314 22.4066 18.2511 22.6411 18.5567C22.8757 18.8623 23.0028 19.2368 23.0028 19.622C23.0028 20.0073 22.8757 20.3817 22.6411 20.6874C22.4066 20.993 22.0778 21.2127 21.7057 21.3124C21.3336 21.4121 20.939 21.3862 20.5831 21.2388C20.2272 21.0914 19.9298 20.8306 19.7372 20.497ZM7.25098 21.372C7.55408 21.3721 7.85201 21.2935 8.11559 21.1439C8.37918 20.9942 8.59937 20.7787 8.75462 20.5184C8.90987 20.258 8.99484 19.9619 9.00121 19.6588C9.00758 19.3558 8.93514 19.0563 8.79098 18.7897L12.7033 12.4306C12.8247 12.233 12.8628 11.9953 12.809 11.7697C12.7553 11.5442 12.6142 11.3491 12.4168 11.2275C11.9491 10.9396 11.5557 10.5456 11.2685 10.0775C10.9812 9.60944 10.8082 9.08032 10.7633 8.53295C10.7184 7.98558 10.803 7.43534 11.0102 6.92671C11.2174 6.41809 11.5413 5.96535 11.9559 5.60511C12.3704 5.24488 12.8639 4.98725 13.3965 4.85307C13.929 4.71889 14.4857 4.71191 15.0215 4.83271C15.5572 4.95351 16.057 5.19869 16.4805 5.54843C16.9039 5.89817 17.2391 6.34265 17.459 6.84592C17.5518 7.0587 17.7253 7.22588 17.9414 7.3107C18.1575 7.39551 18.3984 7.39102 18.6112 7.29819C18.824 7.20536 18.9912 7.03182 19.076 6.81572C19.1608 6.59963 19.1563 6.3587 19.0635 6.14592C18.7483 5.42539 18.2752 4.78488 17.6793 4.2717C17.0833 3.75852 16.3797 3.38579 15.6204 3.18104C14.861 2.97629 14.0654 2.94476 13.2922 3.08876C12.5191 3.23277 11.7881 3.54864 11.1534 4.01305C10.5187 4.47745 9.99649 5.07851 9.62525 5.77184C9.25402 6.46516 9.0433 7.23303 9.00865 8.01873C8.97401 8.80442 9.11633 9.58786 9.42509 10.3112C9.73386 11.0345 10.2012 11.6792 10.7925 12.1976L7.29911 17.872C7.2827 17.872 7.26739 17.872 7.25098 17.872C6.78685 17.872 6.34173 18.0564 6.01354 18.3846C5.68536 18.7128 5.50098 19.1579 5.50098 19.622C5.50098 20.0861 5.68536 20.5313 6.01354 20.8595C6.34173 21.1876 6.78685 21.372 7.25098 21.372ZM21.251 14.372C20.5763 14.3721 19.908 14.5016 19.2822 14.7537L15.791 9.07827C15.9729 8.74115 16.0393 8.35364 15.9798 7.9752C15.9203 7.59676 15.7382 7.2483 15.4616 6.9833C15.1849 6.71829 14.829 6.55138 14.4484 6.50818C14.0677 6.46498 13.6834 6.54788 13.3544 6.74415C13.0254 6.94042 12.7699 7.23923 12.6271 7.59471C12.4843 7.95019 12.4621 8.34271 12.5639 8.71202C12.6657 9.08134 12.8859 9.40705 13.1906 9.63918C13.4954 9.8713 13.8679 9.99701 14.251 9.99702H14.2991L18.2125 16.3572C18.3344 16.5544 18.5295 16.6953 18.755 16.7488C18.9806 16.8023 19.2182 16.7642 19.4157 16.6426C19.8763 16.3587 20.3966 16.1854 20.9356 16.1364C21.4745 16.0874 22.0175 16.1641 22.5218 16.3604C23.0261 16.5566 23.4781 16.8672 23.8421 17.2676C24.2061 17.6681 24.4724 18.1475 24.6198 18.6682C24.7673 19.1888 24.7921 19.7366 24.6921 20.2685C24.5921 20.8004 24.3702 21.3018 24.0437 21.7334C23.7173 22.165 23.2952 22.5151 22.8106 22.756C22.326 22.9969 21.7922 23.1222 21.251 23.122C21.0189 23.122 20.7964 23.2142 20.6323 23.3783C20.4682 23.5424 20.376 23.765 20.376 23.997C20.376 24.2291 20.4682 24.4516 20.6323 24.6157C20.7964 24.7798 21.0189 24.872 21.251 24.872C22.6434 24.872 23.9787 24.3189 24.9633 23.3343C25.9479 22.3498 26.501 21.0144 26.501 19.622C26.501 18.2296 25.9479 16.8943 24.9633 15.9097C23.9787 14.9251 22.6434 14.372 21.251 14.372Z" fill="#EE3038"/>
</svg>
