<svg width="28" height="28" viewBox="0 0 28 28" fill="none" xmlns="http://www.w3.org/2000/svg">
<path opacity="0.2" d="M8.56304 13.5626L14.688 19.6876L11.5162 22.8594C11.0239 23.3517 10.3562 23.6282 9.66007 23.6282C8.96391 23.6282 8.29626 23.3517 7.80398 22.8594L5.39117 20.4433C4.89993 19.9512 4.62402 19.2842 4.62402 18.5889C4.62402 17.8935 4.89993 17.2266 5.39117 16.7344L8.56304 13.5626ZM23.1099 7.55677L20.6938 5.14068C20.2017 4.64944 19.5347 4.37354 18.8394 4.37354C18.144 4.37354 17.4771 4.64944 16.9849 5.14068L13.813 8.31255L19.938 14.4376L23.1099 11.2657C23.6012 10.7735 23.8771 10.1066 23.8771 9.41123C23.8771 8.71587 23.6012 8.04892 23.1099 7.55677Z" fill="#32C45E"/>
<path d="M16.6196 15.1309C16.5383 15.0495 16.4418 14.985 16.3356 14.941C16.2293 14.8969 16.1155 14.8743 16.0005 14.8743C15.8855 14.8743 15.7716 14.8969 15.6654 14.941C15.5592 14.985 15.4627 15.0495 15.3814 15.1309L13.3755 17.1379L11.1125 14.875L13.1195 12.869C13.2837 12.7048 13.376 12.4821 13.376 12.25C13.376 12.0178 13.2837 11.7951 13.1195 11.6309C12.9554 11.4667 12.7327 11.3745 12.5005 11.3745C12.2683 11.3745 12.0456 11.4667 11.8814 11.6309L9.87549 13.6379L7.86955 11.6309C7.70536 11.4667 7.48268 11.3745 7.25049 11.3745C7.01829 11.3745 6.79561 11.4667 6.63142 11.6309C6.46724 11.7951 6.375 12.0178 6.375 12.25C6.375 12.4821 6.46724 12.7048 6.63142 12.869L7.32596 13.5625L4.77533 16.112C4.45024 16.437 4.19236 16.8229 4.01642 17.2476C3.84048 17.6723 3.74992 18.1274 3.74992 18.5871C3.74992 19.0468 3.84048 19.502 4.01642 19.9267C4.19236 20.3514 4.45024 20.7373 4.77533 21.0623L5.36377 21.6496L2.25642 24.7559C2.17513 24.8372 2.11064 24.9337 2.06664 25.0399C2.02265 25.1461 2 25.26 2 25.375C2 25.4899 2.02265 25.6038 2.06664 25.71C2.11064 25.8162 2.17513 25.9127 2.25642 25.994C2.42061 26.1582 2.64329 26.2504 2.87549 26.2504C2.99046 26.2504 3.1043 26.2278 3.21052 26.1838C3.31674 26.1398 3.41325 26.0753 3.49455 25.994L6.6008 22.8867L7.18814 23.4751C7.51316 23.8002 7.89903 24.0581 8.32372 24.234C8.74841 24.41 9.2036 24.5005 9.6633 24.5005C10.123 24.5005 10.5782 24.41 11.0029 24.234C11.4276 24.0581 11.8134 23.8002 12.1385 23.4751L14.688 20.9245L15.3814 21.619C15.4627 21.7003 15.5592 21.7648 15.6655 21.8088C15.7717 21.8528 15.8855 21.8754 16.0005 21.8754C16.1155 21.8754 16.2293 21.8528 16.3355 21.8088C16.4417 21.7648 16.5383 21.7003 16.6196 21.619C16.7008 21.5377 16.7653 21.4412 16.8093 21.335C16.8533 21.2288 16.876 21.1149 16.876 21C16.876 20.885 16.8533 20.7711 16.8093 20.6649C16.7653 20.5587 16.7008 20.4622 16.6196 20.3809L14.6125 18.375L16.6196 16.369C16.7009 16.2878 16.7654 16.1913 16.8095 16.085C16.8535 15.9788 16.8762 15.8649 16.8762 15.75C16.8762 15.635 16.8535 15.5211 16.8095 15.4149C16.7654 15.3087 16.7009 15.2122 16.6196 15.1309ZM10.9003 22.2403C10.5722 22.5682 10.1272 22.7524 9.6633 22.7524C9.19937 22.7524 8.75442 22.5682 8.42627 22.2403L6.01345 19.8242C5.68551 19.496 5.5013 19.0511 5.5013 18.5871C5.5013 18.1232 5.68551 17.6783 6.01345 17.3501L8.56299 14.7995L13.451 19.6875L10.9003 22.2403ZM26.2446 2.00589C26.1633 1.92454 26.0668 1.86 25.9606 1.81597C25.8543 1.77193 25.7405 1.74927 25.6255 1.74927C25.5105 1.74927 25.3966 1.77193 25.2904 1.81597C25.1842 1.86 25.0877 1.92454 25.0064 2.00589L21.9002 5.11324L21.3128 4.5248C20.6557 3.86959 19.7656 3.50165 18.8377 3.50165C17.9097 3.50165 17.0196 3.86959 16.3625 4.5248L13.813 7.07543L13.1195 6.38089C12.9554 6.21671 12.7327 6.12447 12.5005 6.12447C12.2683 6.12447 12.0456 6.21671 11.8814 6.38089C11.7172 6.54508 11.625 6.76776 11.625 6.99996C11.625 7.23215 11.7172 7.45483 11.8814 7.61902L20.6314 16.369C20.7127 16.4503 20.8092 16.5148 20.9155 16.5588C21.0217 16.6028 21.1355 16.6254 21.2505 16.6254C21.3655 16.6254 21.4793 16.6028 21.5855 16.5588C21.6917 16.5148 21.7883 16.4503 21.8696 16.369C21.9508 16.2877 22.0153 16.1912 22.0593 16.085C22.1033 15.9788 22.126 15.8649 22.126 15.75C22.126 15.635 22.1033 15.5211 22.0593 15.4149C22.0153 15.3087 21.9508 15.2122 21.8696 15.1309L21.175 14.4375L23.7256 11.8879C24.0507 11.5629 24.3086 11.177 24.4846 10.7523C24.6605 10.3277 24.7511 9.87246 24.7511 9.41277C24.7511 8.95307 24.6605 8.49788 24.4846 8.07319C24.3086 7.6485 24.0507 7.26263 23.7256 6.93761L23.1372 6.35027L26.2446 3.24402C26.3259 3.16275 26.3904 3.06625 26.4345 2.96003C26.4785 2.85381 26.5012 2.73994 26.5012 2.62496C26.5012 2.50997 26.4785 2.39611 26.4345 2.28988C26.3904 2.18366 26.3259 2.08716 26.2446 2.00589ZM22.4875 10.6465L19.938 13.2004L15.05 8.31246L17.6006 5.76292C17.9288 5.43498 18.3737 5.25077 18.8377 5.25077C19.3016 5.25077 19.7465 5.43498 20.0747 5.76292L22.4875 8.16918C22.6509 8.33178 22.7805 8.52506 22.869 8.73791C22.9574 8.95076 23.003 9.17899 23.003 9.40949C23.003 9.63999 22.9574 9.86821 22.869 10.0811C22.7805 10.2939 22.6509 10.4872 22.4875 10.6498V10.6465Z" fill="#32C45E"/>
</svg>
