<svg width="28" height="28" viewBox="0 0 28 28" fill="none" xmlns="http://www.w3.org/2000/svg">
<path opacity="0.2" d="M23.125 7V21H10V7H23.125Z" fill="#743EC6"/>
<path d="M9.125 7C9.125 6.76794 9.21719 6.54538 9.38128 6.38128C9.54538 6.21719 9.76794 6.125 10 6.125H23.125C23.3571 6.125 23.5796 6.21719 23.7437 6.38128C23.9078 6.54538 24 6.76794 24 7C24 7.23206 23.9078 7.45462 23.7437 7.61872C23.5796 7.78281 23.3571 7.875 23.125 7.875H10C9.76794 7.875 9.54538 7.78281 9.38128 7.61872C9.21719 7.45462 9.125 7.23206 9.125 7ZM23.125 13.125H10C9.76794 13.125 9.54538 13.2172 9.38128 13.3813C9.21719 13.5454 9.125 13.7679 9.125 14C9.125 14.2321 9.21719 14.4546 9.38128 14.6187C9.54538 14.7828 9.76794 14.875 10 14.875H23.125C23.3571 14.875 23.5796 14.7828 23.7437 14.6187C23.9078 14.4546 24 14.2321 24 14C24 13.7679 23.9078 13.5454 23.7437 13.3813C23.5796 13.2172 23.3571 13.125 23.125 13.125ZM23.125 20.125H10C9.76794 20.125 9.54538 20.2172 9.38128 20.3813C9.21719 20.5454 9.125 20.7679 9.125 21C9.125 21.2321 9.21719 21.4546 9.38128 21.6187C9.54538 21.7828 9.76794 21.875 10 21.875H23.125C23.3571 21.875 23.5796 21.7828 23.7437 21.6187C23.9078 21.4546 24 21.2321 24 21C24 20.7679 23.9078 20.5454 23.7437 20.3813C23.5796 20.2172 23.3571 20.125 23.125 20.125ZM5.625 6.125H3.875C3.64294 6.125 3.42038 6.21719 3.25628 6.38128C3.09219 6.54538 3 6.76794 3 7C3 7.23206 3.09219 7.45462 3.25628 7.61872C3.42038 7.78281 3.64294 7.875 3.875 7.875H5.625C5.85706 7.875 6.07962 7.78281 6.24372 7.61872C6.40781 7.45462 6.5 7.23206 6.5 7C6.5 6.76794 6.40781 6.54538 6.24372 6.38128C6.07962 6.21719 5.85706 6.125 5.625 6.125ZM5.625 13.125H3.875C3.64294 13.125 3.42038 13.2172 3.25628 13.3813C3.09219 13.5454 3 13.7679 3 14C3 14.2321 3.09219 14.4546 3.25628 14.6187C3.42038 14.7828 3.64294 14.875 3.875 14.875H5.625C5.85706 14.875 6.07962 14.7828 6.24372 14.6187C6.40781 14.4546 6.5 14.2321 6.5 14C6.5 13.7679 6.40781 13.5454 6.24372 13.3813C6.07962 13.2172 5.85706 13.125 5.625 13.125ZM5.625 20.125H3.875C3.64294 20.125 3.42038 20.2172 3.25628 20.3813C3.09219 20.5454 3 20.7679 3 21C3 21.2321 3.09219 21.4546 3.25628 21.6187C3.42038 21.7828 3.64294 21.875 3.875 21.875H5.625C5.85706 21.875 6.07962 21.7828 6.24372 21.6187C6.40781 21.4546 6.5 21.2321 6.5 21C6.5 20.7679 6.40781 20.5454 6.24372 20.3813C6.07962 20.2172 5.85706 20.125 5.625 20.125Z" fill="#743EC6"/>
</svg>
