<svg width="28" height="28" viewBox="0 0 28 28" fill="none" xmlns="http://www.w3.org/2000/svg">
<path opacity="0.2" d="M22.375 7.875V20.125C22.375 20.3571 22.2828 20.5796 22.1187 20.7437C21.9546 20.9078 21.7321 21 21.5 21H18.875V11.375L14.5 7H8.375V4.375C8.375 4.14294 8.46719 3.92038 8.63128 3.75628C8.79538 3.59219 9.01794 3.5 9.25 3.5H18L22.375 7.875Z" fill="#FF7BCA"/>
<path d="M22.9941 7.25594L18.6191 2.88094C18.5377 2.79971 18.4412 2.7353 18.335 2.69138C18.2288 2.64747 18.1149 2.62491 18 2.625H9.25C8.78587 2.625 8.34075 2.80937 8.01256 3.13756C7.68437 3.46575 7.5 3.91087 7.5 4.375V6.125H5.75C5.28587 6.125 4.84075 6.30937 4.51256 6.63756C4.18437 6.96575 4 7.41087 4 7.875V23.625C4 24.0891 4.18437 24.5342 4.51256 24.8624C4.84075 25.1906 5.28587 25.375 5.75 25.375H18C18.4641 25.375 18.9092 25.1906 19.2374 24.8624C19.5656 24.5342 19.75 24.0891 19.75 23.625V21.875H21.5C21.9641 21.875 22.4092 21.6906 22.7374 21.3624C23.0656 21.0342 23.25 20.5891 23.25 20.125V7.875C23.2501 7.76006 23.2275 7.64623 23.1836 7.54001C23.1397 7.43379 23.0753 7.33726 22.9941 7.25594ZM18 23.625H5.75V7.875H14.138L18 11.737V20.9825C18 20.9891 18 20.9945 18 21C18 21.0055 18 21.0109 18 21.0175V23.625ZM21.5 20.125H19.75V11.375C19.7501 11.2601 19.7275 11.1462 19.6836 11.04C19.6397 10.9338 19.5753 10.8373 19.4941 10.7559L15.1191 6.38094C15.0377 6.29971 14.9412 6.2353 14.835 6.19138C14.7288 6.14747 14.6149 6.12491 14.5 6.125H9.25V4.375H17.638L21.5 8.23703V20.125ZM15.375 16.625C15.375 16.8571 15.2828 17.0796 15.1187 17.2437C14.9546 17.4078 14.7321 17.5 14.5 17.5H9.25C9.01794 17.5 8.79538 17.4078 8.63128 17.2437C8.46719 17.0796 8.375 16.8571 8.375 16.625C8.375 16.3929 8.46719 16.1704 8.63128 16.0063C8.79538 15.8422 9.01794 15.75 9.25 15.75H14.5C14.7321 15.75 14.9546 15.8422 15.1187 16.0063C15.2828 16.1704 15.375 16.3929 15.375 16.625ZM15.375 20.125C15.375 20.3571 15.2828 20.5796 15.1187 20.7437C14.9546 20.9078 14.7321 21 14.5 21H9.25C9.01794 21 8.79538 20.9078 8.63128 20.7437C8.46719 20.5796 8.375 20.3571 8.375 20.125C8.375 19.8929 8.46719 19.6704 8.63128 19.5063C8.79538 19.3422 9.01794 19.25 9.25 19.25H14.5C14.7321 19.25 14.9546 19.3422 15.1187 19.5063C15.2828 19.6704 15.375 19.8929 15.375 20.125Z" fill="#FF7BCA"/>
</svg>
