<svg width="28" height="28" viewBox="0 0 28 28" fill="none" xmlns="http://www.w3.org/2000/svg">
<path opacity="0.2" d="M10.1302 26.25L11.8802 17.5L4.88019 14.875L17.1302 1.75L15.3802 10.5L22.3802 13.125L10.1302 26.25Z" fill="#33BAD5"/>
<path d="M23.2322 12.9249C23.1991 12.7846 23.1318 12.6547 23.0364 12.5467C22.941 12.4387 22.8204 12.356 22.6853 12.3058L16.3842 9.9422L17.9877 1.92173C18.024 1.73538 17.9987 1.54227 17.9156 1.37155C17.8325 1.20084 17.6962 1.06177 17.5272 0.975332C17.3581 0.888898 17.1656 0.859789 16.9785 0.892399C16.7915 0.925008 16.6201 1.01757 16.4903 1.15611L4.24032 14.2811C4.14083 14.3859 4.06885 14.5138 4.03083 14.6532C3.9928 14.7927 3.98991 14.9394 4.02241 15.0802C4.05491 15.221 4.12179 15.3516 4.21707 15.4603C4.31235 15.569 4.43307 15.6523 4.56844 15.703L10.8717 18.0666L9.27266 26.0783C9.23636 26.2646 9.26164 26.4578 9.34471 26.6285C9.42778 26.7992 9.56412 26.9383 9.73316 27.0247C9.9022 27.1111 10.0948 27.1402 10.2818 27.1076C10.4688 27.075 10.6402 26.9825 10.77 26.8439L23.02 13.7189C23.1177 13.6141 23.1881 13.4868 23.2251 13.3484C23.2621 13.2099 23.2646 13.0645 23.2322 12.9249ZM11.5925 23.4063L12.7377 17.6772C12.7786 17.474 12.7462 17.2629 12.646 17.0814C12.5459 16.8999 12.3845 16.7599 12.1908 16.6863L6.41141 14.5152L15.6667 4.59923L14.5227 10.3283C14.4817 10.5315 14.5142 10.7426 14.6143 10.9241C14.7145 11.1056 14.8758 11.2456 15.0695 11.3192L20.8445 13.4849L11.5925 23.4063Z" fill="#33BAD5"/>
</svg>
