<svg width="86" height="31" viewBox="0 0 86 31" fill="none" xmlns="http://www.w3.org/2000/svg">
<g clip-path="url(#clip0_104_43)">
<path d="M9.41348 3.85928H0V26.3719L9.41348 3.85928Z" fill="#181818"/>
<path d="M16.036 3.85938H25.4373V26.372L16.036 3.85938Z" fill="#181818"/>
<path d="M12.7256 12.1567L18.7171 26.372H14.7861L12.9954 21.8462H8.61063L12.7256 12.1567Z" fill="#181818"/>
<path d="M40.7954 18.1758L41.9054 21.3586C41.9422 21.4384 41.9974 21.4752 42.0955 21.4752H44.2297C44.3462 21.4752 44.3646 21.42 44.3462 21.3035L39.9369 9.05674C39.9185 8.95861 39.9001 8.94022 39.802 8.94022H37.1527C37.0791 8.94022 37.0362 8.99541 37.0362 9.07513C36.9994 9.71905 36.9442 9.91529 36.8645 10.1054L32.9335 21.2851C32.9151 21.42 32.958 21.4752 33.0684 21.4752H34.9756C35.0922 21.4752 35.1474 21.4384 35.1903 21.3218L36.239 18.1758H40.7954ZM36.8461 16.0969C37.4225 14.3553 38.183 12.123 38.4896 10.8474H38.508C38.8882 12.1843 39.7836 14.8336 40.1883 16.0969H36.8461Z" fill="#181818"/>
<path d="M50.0149 21.6654C51.1617 21.6654 52.382 21.4569 53.6208 20.9234C53.7189 20.8866 53.7373 20.8437 53.7373 20.7517C53.7005 20.4082 53.6576 19.9115 53.6576 19.5313V8.00208C53.6576 7.92849 53.6576 7.89169 53.5656 7.89169H51.4867C51.407 7.89169 51.3702 7.92849 51.3702 8.02661V11.933C51.0451 11.8963 50.8182 11.8779 50.5484 11.8779C47.1939 11.8779 45.1334 14.0917 45.1334 16.8575C45.1334 20.0648 47.2491 21.6654 50.0149 21.6654ZM51.3702 19.5313C51.0268 19.6417 50.6465 19.6846 50.2602 19.6846C48.7393 19.6846 47.4944 18.826 47.4944 16.741C47.4944 14.8951 48.7761 13.8035 50.4748 13.8035C50.8182 13.8035 51.1187 13.8403 51.3702 13.9384V19.5313Z" fill="#181818"/>
<path d="M60.3695 11.8777C57.5056 11.8777 55.7332 14.0731 55.7332 16.7837C55.7332 19.2061 57.1437 21.6652 60.3265 21.6652C63.0187 21.6652 64.9075 19.6844 64.9075 16.7224C64.9075 14.1099 63.307 11.8777 60.3695 11.8777ZM60.2529 13.8033C61.8719 13.8033 62.5588 15.1954 62.5588 16.7837C62.5588 18.7462 61.5469 19.7212 60.3695 19.7212C58.916 19.7212 58.0575 18.5008 58.0575 16.7408C58.0575 14.9317 58.9712 13.8033 60.2529 13.8033Z" fill="#181818"/>
<path d="M67.0566 7.8916C66.9769 7.8916 66.9217 7.9284 66.9217 8.02652V21.0766C66.9217 21.1318 66.9769 21.2299 67.0566 21.2483C67.9704 21.5304 68.927 21.6653 69.9144 21.6653C72.7415 21.6653 75.4889 19.9114 75.4889 16.3791C75.4889 13.8218 73.735 11.8778 70.9876 11.8778C70.3559 11.8778 69.7672 11.9759 69.2521 12.1476L69.2275 8.04492C69.2275 7.91 69.1907 7.8916 69.0558 7.8916H67.0566ZM73.1401 16.6121C73.1401 18.7278 71.6928 19.7213 70.129 19.7213C69.804 19.7213 69.5158 19.7029 69.2521 19.6232V14.0548C69.5526 13.9383 69.9144 13.8402 70.5828 13.8402C72.0914 13.8402 73.1401 14.7969 73.1401 16.6121Z" fill="#181818"/>
<path d="M83.2479 17.299C84.18 17.299 84.9466 17.2806 85.2103 17.2193C85.3084 17.2009 85.3452 17.1641 85.3636 17.0844C85.4188 16.8759 85.4433 16.4405 85.4433 15.9069C85.4433 14.0917 84.3517 11.8778 81.5307 11.8778C78.6484 11.8778 77.0479 14.2266 77.0479 16.8759C77.0479 19.2246 78.2866 21.6654 81.7577 21.6654C83.0578 21.6654 83.8979 21.4569 84.6216 21.1135C84.6951 21.0767 84.7319 21.0153 84.7319 20.905V19.3166C84.7319 19.2246 84.6767 19.2062 84.6216 19.243C83.8979 19.5497 83.1129 19.703 82.2544 19.703C80.3104 19.703 79.4273 18.6298 79.3721 17.299H83.2479ZM79.3721 15.6555C79.5254 14.7233 80.1141 13.7115 81.4326 13.7115C82.886 13.7115 83.2663 14.9319 83.2663 15.4838C83.2663 15.5022 83.2663 15.5819 83.2663 15.6371C83.1865 15.6555 82.9412 15.6555 82.2176 15.6555H79.3721Z" fill="#181818"/>
</g>
<defs>
<clipPath id="clip0_104_43">
<rect width="85.5479" height="30.8744" fill="white"/>
</clipPath>
</defs>
</svg>
