<svg width="87" height="29" viewBox="0 0 87 29" fill="none" xmlns="http://www.w3.org/2000/svg">
<mask id="mask0_104_65" style="mask-type:luminance" maskUnits="userSpaceOnUse" x="0" y="0" width="87" height="29">
<path d="M0.740479 0.475769H86.2884V28.3986H0.740479V0.475769Z" fill="white"/>
</mask>
<g mask="url(#mask0_104_65)">
<path fill-rule="evenodd" clip-rule="evenodd" d="M11.2764 0.478424H12.0371C14.6783 0.535912 17.2762 1.59807 19.1422 3.47842C18.4532 4.18179 17.75 4.85642 17.0754 5.55963C16.0276 4.61244 14.7644 3.88032 13.3864 3.62197C11.3483 3.19132 9.15208 3.57885 7.44403 4.74162C5.57805 5.96153 4.31485 8.02854 4.04213 10.2389C3.74083 12.4207 4.35797 14.7174 5.77892 16.411C7.14256 18.0618 9.22394 19.0952 11.3768 19.1671C13.3864 19.2819 15.4821 18.6645 16.9462 17.258C18.0944 16.2675 18.6255 14.7605 18.7978 13.2964C16.4151 13.2964 14.0324 13.3106 11.6496 13.2964V10.3395H21.6828C22.1995 13.5116 21.4532 17.0857 19.0418 19.3535C17.4341 20.9612 15.2094 21.9085 12.9415 22.0952C10.7453 22.3104 8.47745 21.8941 6.52541 20.832C4.18568 19.5833 2.3197 17.4732 1.40109 14.9901C0.539965 12.7078 0.525593 10.1241 1.3294 7.8275C2.06135 5.73192 3.4681 3.88032 5.27658 2.58855C7.01338 1.31098 9.12333 0.607601 11.2764 0.478424Z" fill="#181818"/>
<path fill-rule="evenodd" clip-rule="evenodd" d="M68.835 1.2247H71.9066V21.7218C70.8874 21.7218 69.854 21.736 68.835 21.7074C68.8492 14.8894 68.835 8.05707 68.835 1.2247Z" fill="#181818"/>
<path fill-rule="evenodd" clip-rule="evenodd" d="M28.5153 8.32981C30.4101 7.97086 32.4627 8.37276 34.0272 9.50678C35.4482 10.5115 36.4386 12.0905 36.7401 13.8129C37.1276 15.8081 36.6395 17.9897 35.3477 19.5688C33.9555 21.3341 31.6733 22.2815 29.4483 22.1379C27.4101 22.0231 25.4293 21.0041 24.2236 19.339C22.8601 17.5018 22.5299 14.9755 23.2762 12.8224C24.0227 10.5115 26.1327 8.74609 28.5153 8.32981ZM28.946 11.0569C28.1709 11.2579 27.4532 11.7028 26.9365 12.3345C25.5441 13.9994 25.6303 16.7123 27.1661 18.2624C28.0418 19.1525 29.3623 19.5688 30.5824 19.3246C31.7162 19.1237 32.7067 18.363 33.2521 17.3582C34.1995 15.6502 33.9268 13.2962 32.4771 11.9613C31.5441 11.1 30.1805 10.7412 28.946 11.0569Z" fill="#181818"/>
<path fill-rule="evenodd" clip-rule="evenodd" d="M43.7303 8.32979C45.8978 7.91351 48.2661 8.51628 49.888 10.0378C52.5293 12.4061 52.8162 16.8415 50.5627 19.5687C49.199 21.2912 46.9887 22.2385 44.8068 22.1379C42.7256 22.0806 40.673 21.0472 39.4385 19.339C38.0463 17.4586 37.7449 14.8751 38.5343 12.6789C39.3237 10.4397 41.3907 8.73169 43.7303 8.32979ZM44.161 11.0569C43.3859 11.2579 42.6681 11.7028 42.1514 12.3201C40.7736 13.9564 40.8309 16.6262 42.3094 18.1907C43.1849 19.1237 44.5485 19.5831 45.8117 19.3246C46.9312 19.1093 47.936 18.363 48.4815 17.3582C49.4145 15.6358 49.1417 13.2818 47.6777 11.9469C46.7447 11.0856 45.381 10.7412 44.161 11.0569Z" fill="#181818"/>
<path fill-rule="evenodd" clip-rule="evenodd" d="M56.6344 9.16213C58.2851 8.12871 60.4811 7.84161 62.261 8.73165C62.8208 8.97564 63.2801 9.39191 63.7251 9.80819L63.7395 8.61685L66.6388 8.63105V21.2911C66.6245 23.2 66.1365 25.2239 64.7585 26.6163C63.2513 28.1521 60.9405 28.6258 58.8591 28.31C56.6344 27.9799 54.6965 26.3579 53.8354 24.3053C54.6965 23.889 55.6009 23.559 56.4908 23.1715C56.9931 24.3484 58.0124 25.3531 59.2898 25.5829C60.5672 25.8125 62.0456 25.4967 62.8782 24.4345C63.768 23.3436 63.768 21.8509 63.7251 20.5161C63.0648 21.1619 62.304 21.736 61.3854 21.9514C59.3902 22.5112 57.1942 21.8222 55.6583 20.4729C54.1081 19.1237 53.1895 17.0425 53.2756 14.9755C53.3187 12.6357 54.6392 10.3822 56.6344 9.16213ZM59.6056 10.9995C58.7299 11.1431 57.9118 11.631 57.3519 12.3057C56.0028 13.9133 56.0028 16.4826 57.3663 18.0615C58.1415 18.9945 59.3902 19.5112 60.5959 19.382C61.7299 19.2672 62.7777 18.5495 63.3376 17.5592C64.2849 15.8797 64.127 13.5974 62.8494 12.1334C62.06 11.2291 60.797 10.7841 59.6056 10.9995Z" fill="#181818"/>
<path fill-rule="evenodd" clip-rule="evenodd" d="M75.5956 9.89432C77.318 8.28671 79.9734 7.74125 82.184 8.58818C84.2796 9.37761 85.6145 11.3728 86.2891 13.4254C83.1743 14.7172 80.0739 15.9946 76.9592 17.2865C77.3899 18.1047 78.0502 18.851 78.94 19.1525C80.1889 19.5973 81.6815 19.4396 82.7295 18.607C83.1457 18.2912 83.4758 17.8749 83.7916 17.473L86.1599 19.0519C85.0403 20.7314 83.1599 21.9083 81.1362 22.095C78.8969 22.3677 76.5142 21.5064 75.0645 19.7553C72.6819 16.9994 72.9115 12.3774 75.5956 9.89432ZM77.1315 12.5497C76.6434 13.2531 76.4425 14.1142 76.4569 14.9612C78.5381 14.1 80.6193 13.2387 82.7007 12.3632C82.3561 11.5594 81.5237 11.0713 80.6768 10.9421C79.3132 10.6981 77.8922 11.4301 77.1315 12.5497Z" fill="#181818"/>
</g>
</svg>
