<svg width="53" height="23" viewBox="0 0 53 23" fill="none" xmlns="http://www.w3.org/2000/svg">
<g clip-path="url(#clip0_145_161)">
<path d="M5.94466 6.40039V10.5339H2.14848V6.40039H0.346191L0.346191 16.2675H2.14848L2.14848 12.2682H5.94466V16.2675H7.74695V6.40039H5.94466Z" fill="#33475B"/>
<path d="M13.515 13.0777C13.515 13.4732 13.3579 13.8524 13.0782 14.132C12.7986 14.4116 12.4194 14.5687 12.0239 14.5687C11.6285 14.5687 11.2493 14.4116 10.9696 14.132C10.69 13.8524 10.5329 13.4732 10.5329 13.0777V8.8515H8.82336V13.0777C8.82336 13.9257 9.16024 14.739 9.75988 15.3387C10.3595 15.9383 11.1728 16.2752 12.0208 16.2752C12.8689 16.2752 13.6822 15.9383 14.2818 15.3387C14.8815 14.739 15.2183 13.9257 15.2183 13.0777V8.8515H13.515V13.0777Z" fill="#33475B"/>
<path d="M26.1817 9.28706C26.1817 8.42079 26.7548 8.14617 27.3826 8.14617C27.8886 8.14617 28.5571 8.53117 28.9942 8.9983L30.1138 7.67904C29.5549 6.92316 28.4211 6.4004 27.493 6.4004C25.6386 6.4004 24.2973 7.48654 24.2973 9.28706C24.2973 12.6276 28.3804 11.5679 28.3804 13.4373C28.3804 14.014 27.8206 14.5235 27.1795 14.5235C26.1684 14.5235 25.8408 14.029 25.3763 13.5062L24.1339 14.7981C24.9286 15.7739 25.9088 16.2692 27.0833 16.2692C28.8449 16.2692 30.2622 15.1699 30.2622 13.4515C30.2622 9.7427 26.179 10.8951 26.179 9.28706" fill="#33475B"/>
<path d="M51.442 14.6911C50.4318 14.6911 50.1448 14.254 50.1448 13.5847V10.6221L51.7148 10.6221V9.12093H50.1448V7.14027L48.4114 7.91823V13.9529C48.4114 15.4965 49.4763 16.2744 50.9369 16.2744C51.1659 16.2786 51.3948 16.2603 51.6203 16.2197L52.0433 14.6629C51.8526 14.6761 51.6336 14.6894 51.442 14.6894" fill="#33475B"/>
<path d="M20.0225 8.90132C19.1757 8.90132 18.5849 9.14681 18.0136 9.70754V6.45972H16.3014V12.4794C16.3014 14.7329 17.9306 16.2765 19.7611 16.2765C21.7921 16.2765 23.5785 14.7055 23.5785 12.5898C23.5785 10.5005 21.9343 8.90221 20.0225 8.90221V8.90132ZM20.0119 14.5537C19.6277 14.5537 19.2521 14.4397 18.9326 14.2263C18.6131 14.0128 18.3641 13.7094 18.2171 13.3544C18.07 12.9994 18.0316 12.6088 18.1065 12.232C18.1815 11.8551 18.3665 11.509 18.6382 11.2373C18.9099 10.9656 19.2561 10.7806 19.6329 10.7056C20.0097 10.6307 20.4003 10.6691 20.7553 10.8162C21.1103 10.9632 21.4137 11.2122 21.6272 11.5317C21.8406 11.8511 21.9546 12.2267 21.9546 12.611C21.9546 13.1262 21.7499 13.6203 21.3856 13.9847C21.0213 14.349 20.5271 14.5537 20.0119 14.5537Z" fill="#33475B"/>
<path d="M38.6139 12.4993C38.6139 10.38 36.8311 8.81264 34.7965 8.81264C32.966 8.81264 31.3368 10.3562 31.3368 12.6097V18.6329H33.049V15.3807C33.6195 15.9405 34.2111 16.1869 35.057 16.1869C36.9688 16.1869 38.613 14.5895 38.613 12.4993H38.6139ZM36.9927 12.4781C36.9927 12.8624 36.8787 13.238 36.6653 13.5574C36.4518 13.8769 36.1484 14.1259 35.7934 14.2729C35.4384 14.42 35.0478 14.4585 34.671 14.3835C34.2941 14.3085 33.948 14.1235 33.6763 13.8518C33.4046 13.5801 33.2196 13.234 33.1446 12.8571C33.0697 12.4803 33.1081 12.0897 33.2552 11.7347C33.4022 11.3797 33.6512 11.0763 33.9707 10.8628C34.2902 10.6494 34.6657 10.5354 35.05 10.5354C35.5652 10.5354 36.0593 10.7401 36.4237 11.1044C36.788 11.4688 36.9927 11.9629 36.9927 12.4781Z" fill="#33475B"/>
<path d="M44.1267 8.78536V7.08286C44.3517 6.97778 44.5422 6.81093 44.676 6.60175C44.8099 6.39257 44.8815 6.14968 44.8826 5.90136V5.86162C44.8817 5.51459 44.7434 5.18205 44.498 4.93666C44.2526 4.69127 43.9201 4.553 43.573 4.55207H43.5333C43.1863 4.553 42.8537 4.69127 42.6083 4.93666C42.363 5.18205 42.2247 5.51459 42.2238 5.86162V5.90136C42.2249 6.14968 42.2965 6.39257 42.4303 6.60175C42.5641 6.81093 42.7546 6.97778 42.9796 7.08286V8.78536C42.3328 8.88428 41.7235 9.15235 41.2136 9.56244L36.5388 5.9252C36.572 5.80521 36.5898 5.68147 36.5917 5.55697C36.5921 5.26478 36.5058 4.97906 36.3437 4.73592C36.1817 4.49278 35.9512 4.30315 35.6814 4.19101C35.4116 4.07888 35.1146 4.04926 34.8279 4.10592C34.5413 4.16258 34.2779 4.30297 34.071 4.50933C33.8642 4.71569 33.7232 4.97876 33.6658 5.26526C33.6085 5.55177 33.6374 5.84884 33.7489 6.11892C33.8604 6.389 34.0494 6.61995 34.2922 6.78257C34.5349 6.9452 34.8205 7.03218 35.1126 7.03253C35.3693 7.03157 35.6212 6.96305 35.8429 6.83385L40.4391 10.4119C40.0251 11.0365 39.8092 11.7714 39.8194 12.5207C39.8296 13.2699 40.0656 13.9986 40.4965 14.6117L39.0978 16.0104C38.9855 15.9746 38.8686 15.9556 38.7508 15.9539C38.5106 15.9539 38.2759 16.0251 38.0762 16.1585C37.8765 16.2919 37.7209 16.4815 37.629 16.7034C37.5371 16.9253 37.5131 17.1694 37.5599 17.4049C37.6068 17.6405 37.7224 17.8568 37.8922 18.0266C38.062 18.1964 38.2784 18.3121 38.5139 18.3589C38.7494 18.4058 38.9935 18.3817 39.2154 18.2898C39.4373 18.1979 39.6269 18.0423 39.7603 17.8426C39.8937 17.6429 39.9649 17.4082 39.9649 17.1681C39.9633 17.0502 39.9443 16.9333 39.9084 16.821L41.2921 15.4373C41.7438 15.7823 42.2684 16.0196 42.8257 16.1309C43.3831 16.2423 43.9586 16.2249 44.5081 16.0799C45.0577 15.935 45.5669 15.6664 45.9969 15.2947C46.4269 14.9229 46.7662 14.4579 46.989 13.935C47.2118 13.4121 47.3122 12.8452 47.2826 12.2776C47.2529 11.71 47.0939 11.1567 46.8178 10.6599C46.5416 10.1631 46.1556 9.73594 45.6892 9.41107C45.2229 9.0862 44.6884 8.87219 44.1267 8.78536ZM43.5536 14.3856C43.175 14.3856 42.8048 14.2733 42.49 14.063C42.1752 13.8526 41.9298 13.5536 41.7849 13.2038C41.64 12.854 41.6021 12.469 41.676 12.0977C41.7498 11.7263 41.9322 11.3852 42.1999 11.1175C42.4676 10.8497 42.8088 10.6674 43.1801 10.5935C43.5515 10.5197 43.9364 10.5576 44.2862 10.7025C44.636 10.8474 44.935 11.0927 45.1454 11.4076C45.3558 11.7224 45.468 12.0925 45.468 12.4712C45.468 12.9789 45.2663 13.4659 44.9073 13.8249C44.5483 14.1839 44.0614 14.3856 43.5536 14.3856Z" fill="#FF7A59"/>
</g>
<defs>
<clipPath id="clip0_145_161">
<rect width="51.8523" height="21.8326" fill="white" transform="translate(0.346313 0.439209)"/>
</clipPath>
</defs>
</svg>
