<svg width="74" height="31" viewBox="0 0 74 31" fill="none" xmlns="http://www.w3.org/2000/svg">
<g clip-path="url(#clip0_104_57)">
<path d="M7.91011 8.43021V14.2756H2.54174V8.43021H-0.00695801V22.3837H2.54174V16.7281H7.91011V22.3837H10.4588V8.43021H7.91011Z" fill="#181818"/>
<path d="M18.6156 17.8729C18.6156 18.4321 18.3935 18.9685 17.998 19.3639C17.6026 19.7593 17.0663 19.9814 16.5071 19.9814C15.9479 19.9814 15.4116 19.7593 15.0162 19.3639C14.6207 18.9685 14.3986 18.4321 14.3986 17.8729V11.8964H11.981V17.8729C11.981 19.0722 12.4574 20.2223 13.3054 21.0703C14.1534 21.9183 15.3035 22.3947 16.5027 22.3947C17.702 22.3947 18.8521 21.9183 19.7001 21.0703C20.548 20.2223 21.0244 19.0722 21.0244 17.8729V11.8964H18.6156V17.8729Z" fill="#181818"/>
<path d="M36.5282 12.5124C36.5282 11.2874 37.3387 10.899 38.2265 10.899C38.9421 10.899 39.8874 11.4434 40.5055 12.104L42.0889 10.2384C41.2984 9.16948 39.6951 8.43022 38.3826 8.43022C35.7602 8.43022 33.8634 9.96618 33.8634 12.5124C33.8634 17.2364 39.6376 15.7379 39.6376 18.3815C39.6376 19.1969 38.8459 19.9174 37.9393 19.9174C36.5095 19.9174 36.0462 19.2182 35.3894 18.4789L33.6324 20.3058C34.7563 21.6857 36.1424 22.3862 37.8032 22.3862C40.2945 22.3862 42.2987 20.8315 42.2987 18.4015C42.2987 13.1567 36.5245 14.7863 36.5245 12.5124" fill="#181818"/>
<path d="M72.25 20.1545C70.8214 20.1545 70.4156 19.5364 70.4156 18.5899V14.4003H72.6358V12.2774H70.4156V9.4765L67.9643 10.5766V19.1106C67.9643 21.2934 69.4703 22.3936 71.5357 22.3936C71.8596 22.3995 72.1834 22.3735 72.5022 22.3161L73.1004 20.1146C72.8307 20.1333 72.521 20.1521 72.25 20.1521" fill="#181818"/>
<path d="M27.8182 11.9669C26.6207 11.9669 25.7853 12.314 24.9773 13.107V8.51411H22.556V17.0268C22.556 20.2136 24.8599 22.3964 27.4486 22.3964C30.3207 22.3964 32.8469 20.1749 32.8469 17.1829C32.8469 14.2284 30.5218 11.9681 27.8182 11.9681V11.9669ZM27.8032 19.9601C27.2599 19.9601 26.7287 19.799 26.277 19.4971C25.8252 19.1953 25.4731 18.7662 25.2651 18.2642C25.0572 17.7622 25.0028 17.2098 25.1088 16.6769C25.2148 16.144 25.4764 15.6545 25.8606 15.2703C26.2449 14.8861 26.7344 14.6244 27.2673 14.5184C27.8002 14.4124 28.3526 14.4668 28.8546 14.6748C29.3566 14.8827 29.7856 15.2348 30.0875 15.6866C30.3894 16.1384 30.5505 16.6695 30.5505 17.2129C30.5505 17.9415 30.2611 18.6403 29.7458 19.1555C29.2306 19.6707 28.5319 19.9601 27.8032 19.9601Z" fill="#181818"/>
<path d="M54.1092 17.055C54.1092 14.058 51.588 11.8415 48.7109 11.8415C46.1223 11.8415 43.8183 14.0243 43.8183 17.2111V25.7288H46.2396V21.1297C47.0463 21.9214 47.883 22.2698 49.0793 22.2698C51.7828 22.2698 54.108 20.0108 54.108 17.055H54.1092ZM51.8166 17.025C51.8166 17.5684 51.6554 18.0995 51.3536 18.5513C51.0517 19.0031 50.6226 19.3552 50.1206 19.5632C49.6186 19.7711 49.0663 19.8255 48.5333 19.7195C48.0004 19.6135 47.5109 19.3518 47.1267 18.9676C46.7425 18.5834 46.4809 18.0939 46.3749 17.561C46.2688 17.0281 46.3233 16.4757 46.5312 15.9737C46.7391 15.4717 47.0912 15.0427 47.543 14.7408C47.9948 14.4389 48.526 14.2778 49.0693 14.2778C49.7979 14.2778 50.4967 14.5672 51.0119 15.0824C51.5271 15.5976 51.8166 16.2964 51.8166 17.025Z" fill="#181818"/>
<path d="M61.9068 11.8028V9.39518C62.225 9.24658 62.4944 9.01063 62.6836 8.71482C62.8729 8.41901 62.9742 8.07552 62.9757 7.72435V7.66816C62.9744 7.17741 62.7789 6.70714 62.4319 6.36013C62.0849 6.01312 61.6146 5.81759 61.1238 5.81627H61.0676C60.5769 5.81759 60.1066 6.01312 59.7596 6.36013C59.4126 6.70714 59.2171 7.17741 59.2158 7.66816V7.72435C59.2173 8.07552 59.3186 8.41901 59.5079 8.71482C59.6971 9.01063 59.9665 9.24658 60.2847 9.39518V11.8028C59.3699 11.9426 58.5083 12.3217 57.7872 12.9017L51.1763 7.75807C51.2234 7.5884 51.2486 7.4134 51.2512 7.23734C51.2517 6.82415 51.1297 6.42008 50.9005 6.07625C50.6714 5.73242 50.3454 5.46426 49.9639 5.30568C49.5823 5.1471 49.1623 5.10522 48.757 5.18535C48.3516 5.26547 47.9791 5.464 47.6866 5.75583C47.3941 6.04765 47.1947 6.41966 47.1136 6.82482C47.0325 7.22998 47.0733 7.65009 47.231 8.03202C47.3887 8.41396 47.6561 8.74056 47.9993 8.97053C48.3426 9.2005 48.7464 9.32351 49.1596 9.324C49.5225 9.32265 49.8787 9.22574 50.1923 9.04303L56.692 14.103C56.1066 14.9862 55.8012 16.0255 55.8156 17.085C55.8301 18.1446 56.1638 19.1751 56.7732 20.042L54.7952 22.02C54.6364 21.9695 54.4711 21.9425 54.3044 21.9401C53.9648 21.9401 53.6329 22.0408 53.3505 22.2295C53.0681 22.4181 52.8481 22.6863 52.7181 23.0001C52.5881 23.3138 52.5541 23.659 52.6204 23.9921C52.6867 24.3252 52.8502 24.6311 53.0903 24.8713C53.3304 25.1114 53.6364 25.2749 53.9695 25.3412C54.3025 25.4074 54.6478 25.3734 54.9615 25.2435C55.2753 25.1135 55.5434 24.8934 55.7321 24.6111C55.9208 24.3287 56.0215 23.9967 56.0215 23.6571C56.0192 23.4905 55.9922 23.3251 55.9415 23.1664L57.8983 21.2096C58.5371 21.6975 59.2789 22.033 60.0671 22.1905C60.8553 22.348 61.669 22.3233 62.4462 22.1184C63.2234 21.9134 63.9435 21.5336 64.5515 21.0079C65.1596 20.4822 65.6395 19.8245 65.9545 19.0851C66.2696 18.3456 66.4116 17.544 66.3696 16.7413C66.3277 15.9386 66.1029 15.1561 65.7124 14.4536C65.3219 13.7511 64.776 13.147 64.1165 12.6876C63.4569 12.2282 62.7011 11.9255 61.9068 11.8028ZM61.0964 19.7223C60.5609 19.7223 60.0375 19.5635 59.5923 19.2661C59.1471 18.9686 58.8001 18.5458 58.5952 18.0511C58.3903 17.5564 58.3366 17.012 58.4411 16.4869C58.5456 15.9617 58.8034 15.4793 59.182 15.1007C59.5607 14.7221 60.043 14.4642 60.5682 14.3598C61.0934 14.2553 61.6377 14.3089 62.1324 14.5138C62.6271 14.7187 63.0499 15.0657 63.3474 15.511C63.6449 15.9562 63.8037 16.4796 63.8037 17.015C63.8037 17.7331 63.5184 18.4217 63.0107 18.9294C62.503 19.4371 61.8144 19.7223 61.0964 19.7223Z" fill="#181818"/>
</g>
<defs>
<clipPath id="clip0_104_57">
<rect width="73.3268" height="30.8744" fill="white" transform="translate(-0.00695801)"/>
</clipPath>
</defs>
</svg>
