<svg width="89" height="23" viewBox="0 0 89 23" fill="none" xmlns="http://www.w3.org/2000/svg">
<path d="M10.3925 15.8915C13.4823 15.8915 15.9871 13.3531 15.9871 10.2219C15.9871 7.09063 13.4823 4.55225 10.3925 4.55225C7.30261 4.55225 4.79779 7.09063 4.79779 10.2219C4.79779 13.3531 7.30261 15.8915 10.3925 15.8915Z" fill="#181818"/>
<path d="M35.1681 15.4869C35.1681 11.6848 32.1267 8.60199 28.3746 8.60199C24.6224 8.60199 21.581 11.6848 21.581 15.4869C21.581 15.6236 21.5935 15.7572 21.6013 15.8923H15.1405C15.1694 15.626 15.1873 15.3565 15.1873 15.0824C15.1873 11.056 11.967 7.79282 7.99463 7.79282C4.02221 7.79204 0.801941 11.056 0.801941 15.0824C0.801941 19.1087 4.02221 22.3719 7.99463 22.3719H28.9197C32.4844 22.161 35.1681 19.1524 35.1681 15.4869Z" fill="#181818"/>
<path d="M14.9975 13.4383C14.261 10.2047 11.4094 7.79204 7.99463 7.79204C6.9613 7.79204 5.98108 8.01698 5.09303 8.41454C4.90402 8.98314 4.79779 9.58924 4.79779 10.2219C4.79779 13.3531 7.30261 15.8915 10.3925 15.8915C12.3029 15.8923 13.9884 14.9199 14.9975 13.4383Z" fill="#181818"/>
<path d="M20.3829 19.1321C25.4587 19.1321 29.5735 14.9617 29.5735 9.8173C29.5735 4.67288 25.4587 0.502502 20.3829 0.502502C15.307 0.502502 11.1922 4.67288 11.1922 9.8173C11.1922 14.9617 15.307 19.1321 20.3829 19.1321Z" fill="#181818"/>
<path d="M12.5357 4.98495C11.6882 6.39474 11.1915 8.0451 11.1915 9.81652C11.1915 11.8535 11.8444 13.7327 12.9387 15.2659C14.7468 14.3263 15.9863 12.4229 15.9863 10.2219C15.9871 7.86077 14.5617 5.83785 12.5357 4.98495Z" fill="#181818"/>
<path d="M11.2735 8.60043C11.2211 8.99876 11.1915 9.40413 11.1915 9.8173C11.1915 11.8543 11.8436 13.7319 12.9379 15.2651C12.9418 15.2628 12.9465 15.2612 12.9504 15.2597C13.3917 15.0292 13.7986 14.7403 14.1626 14.4044C14.1938 14.3755 14.2219 14.3427 14.2524 14.3122C14.3914 14.1779 14.525 14.0373 14.65 13.8889C14.7046 13.8241 14.7538 13.7546 14.8054 13.6874C14.871 13.6015 14.9327 13.5132 14.9936 13.4242C14.5094 11.3177 13.1238 9.56581 11.2735 8.60043Z" fill="#181818"/>
<path d="M21.5818 15.4869C21.5818 16.7226 21.9075 17.8793 22.469 18.8814C26.5383 17.9223 29.5735 14.2326 29.5735 9.81652C29.5735 9.43927 29.5446 9.06984 29.5016 8.70431C29.1345 8.64182 28.7596 8.60199 28.3746 8.60199C24.6232 8.60199 21.5818 11.6848 21.5818 15.4869Z" fill="#181818"/>
<path d="M40.8862 18.3719V9.85134H42.8943V18.3719H40.8862ZM41.8958 8.64205C41.5778 8.64205 41.3041 8.53665 41.0748 8.32585C40.8455 8.11136 40.7309 7.85434 40.7309 7.55479C40.7309 7.25154 40.8455 6.99452 41.0748 6.78372C41.3041 6.56923 41.5778 6.46198 41.8958 6.46198C42.2176 6.46198 42.4912 6.56923 42.7168 6.78372C42.9461 6.99452 43.0607 7.25154 43.0607 7.55479C43.0607 7.85434 42.9461 8.11136 42.7168 8.32585C42.4912 8.53665 42.2176 8.64205 41.8958 8.64205ZM54.7723 10.8443H52.6977C52.6385 10.5041 52.5294 10.2027 52.3704 9.9401C52.2113 9.67383 52.0135 9.44824 51.7768 9.26333C51.5401 9.07843 51.2702 8.93975 50.9669 8.84729C50.6674 8.75114 50.3438 8.70307 49.9962 8.70307C49.3786 8.70307 48.8312 8.85839 48.3542 9.16903C47.8771 9.47598 47.5036 9.92715 47.2336 10.5226C46.9637 11.1143 46.8287 11.8372 46.8287 12.6915C46.8287 13.5606 46.9637 14.2928 47.2336 14.8882C47.5073 15.4799 47.8808 15.9274 48.3542 16.2307C48.8312 16.5302 49.3767 16.68 49.9906 16.68C50.3308 16.68 50.6489 16.6356 50.9447 16.5468C51.2443 16.4544 51.5124 16.3194 51.7491 16.1419C51.9895 15.9644 52.191 15.7462 52.3537 15.4873C52.5201 15.2285 52.6348 14.9326 52.6977 14.5998L54.7723 14.6109C54.6947 15.1508 54.5264 15.6574 54.2675 16.1308C54.0123 16.6042 53.6777 17.0221 53.2635 17.3845C52.8493 17.7432 52.3648 18.0243 51.8101 18.2277C51.2554 18.4274 50.6396 18.5272 49.9629 18.5272C48.9644 18.5272 48.0731 18.2961 47.2891 17.8338C46.5051 17.3715 45.8875 16.704 45.4363 15.8313C44.9852 14.9585 44.7596 13.9119 44.7596 12.6915C44.7596 11.4674 44.987 10.4209 45.4419 9.55179C45.8968 8.67903 46.5162 8.01151 47.3002 7.54924C48.0842 7.08697 48.9718 6.85584 49.9629 6.85584C50.5953 6.85584 51.1833 6.94459 51.7269 7.1221C52.2705 7.29962 52.755 7.56034 53.1803 7.90426C53.6056 8.24449 53.955 8.66239 54.2287 9.15794C54.5061 9.64979 54.6873 10.2119 54.7723 10.8443ZM58.5763 7.01116V18.3719H56.5682V7.01116H58.5763ZM64.3579 18.5383C63.5258 18.5383 62.8047 18.3552 62.1945 17.9891C61.5843 17.623 61.111 17.1108 60.7744 16.4525C60.4416 15.7943 60.2752 15.0251 60.2752 14.1449C60.2752 13.2647 60.4416 12.4937 60.7744 11.8317C61.111 11.1697 61.5843 10.6557 62.1945 10.2896C62.8047 9.92346 63.5258 9.7404 64.3579 9.7404C65.19 9.7404 65.9112 9.92346 66.5214 10.2896C67.1315 10.6557 67.6031 11.1697 67.9359 11.8317C68.2724 12.4937 68.4407 13.2647 68.4407 14.1449C68.4407 15.0251 68.2724 15.7943 67.9359 16.4525C67.6031 17.1108 67.1315 17.623 66.5214 17.9891C65.9112 18.3552 65.19 18.5383 64.3579 18.5383ZM64.369 16.9296C64.8202 16.9296 65.1974 16.8057 65.5007 16.5579C65.8039 16.3065 66.0295 15.9699 66.1774 15.5483C66.329 15.1268 66.4049 14.6571 66.4049 14.1394C66.4049 13.6179 66.329 13.1464 66.1774 12.7248C66.0295 12.2995 65.8039 11.9611 65.5007 11.7097C65.1974 11.4582 64.8202 11.3325 64.369 11.3325C63.9068 11.3325 63.5222 11.4582 63.2152 11.7097C62.912 11.9611 62.6845 12.2995 62.5329 12.7248C62.385 13.1464 62.311 13.6179 62.311 14.1394C62.311 14.6571 62.385 15.1268 62.5329 15.5483C62.6845 15.9699 62.912 16.3065 63.2152 16.5579C63.5222 16.8057 63.9068 16.9296 64.369 16.9296ZM75.5758 14.7884V9.85134H77.5839V18.3719H75.6368V16.8575H75.5481C75.3558 17.3346 75.0396 17.7247 74.5995 18.028C74.1631 18.3312 73.625 18.4828 72.9853 18.4828C72.4268 18.4828 71.9331 18.3589 71.5042 18.1112C71.0789 17.8597 70.746 17.4954 70.5057 17.0184C70.2653 16.5376 70.1451 15.957 70.1451 15.2765V9.85134H72.1532V14.9659C72.1532 15.5058 72.3011 15.9348 72.597 16.2528C72.8928 16.5709 73.2811 16.7299 73.7619 16.7299C74.0577 16.7299 74.3443 16.6578 74.6217 16.5136C74.8991 16.3693 75.1265 16.1548 75.304 15.8701C75.4852 15.5816 75.5758 15.2211 75.5758 14.7884ZM82.8108 18.5217C82.1414 18.5217 81.5423 18.3497 81.0135 18.0058C80.4847 17.6618 80.0668 17.1626 79.7598 16.508C79.4529 15.8534 79.2994 15.0583 79.2994 14.1227C79.2994 13.176 79.4547 12.3772 79.7654 11.7263C80.0797 11.0717 80.5031 10.578 81.0357 10.2452C81.5682 9.90866 82.1618 9.7404 82.8163 9.7404C83.3156 9.7404 83.7261 9.82545 84.0478 9.99557C84.3696 10.162 84.6247 10.3635 84.8133 10.6002C85.002 10.8332 85.148 11.0532 85.2516 11.2603H85.3348V7.01116H87.3484V18.3719H85.3736V17.0295H85.2516C85.148 17.2366 84.9983 17.4566 84.8023 17.6896C84.6062 17.9189 84.3474 18.1149 84.0256 18.2776C83.7039 18.4403 83.299 18.5217 82.8108 18.5217ZM83.3711 16.8741C83.7964 16.8741 84.1588 16.7595 84.4583 16.5302C84.7579 16.2972 84.9853 15.9736 85.1406 15.5594C85.296 15.1452 85.3736 14.6626 85.3736 14.1116C85.3736 13.5606 85.296 13.0817 85.1406 12.6749C84.989 12.2681 84.7634 11.9519 84.4639 11.7263C84.168 11.5007 83.8037 11.3879 83.3711 11.3879C82.9236 11.3879 82.5501 11.5044 82.2505 11.7374C81.951 11.9704 81.7254 12.2921 81.5738 12.7026C81.4221 13.1131 81.3463 13.5828 81.3463 14.1116C81.3463 14.6441 81.4221 15.1194 81.5738 15.5373C81.7291 15.9514 81.9565 16.2787 82.2561 16.5191C82.5593 16.7558 82.931 16.8741 83.3711 16.8741Z" fill="#181818"/>
</svg>
