<svg width="30" height="50" viewBox="0 0 30 50" fill="none" xmlns="http://www.w3.org/2000/svg">
<g clip-path="url(#clip0_145_74)">
<path fill-rule="evenodd" clip-rule="evenodd" d="M26.4989 12.2694H2.95665C1.61486 12.2694 0.527588 13.3569 0.527588 14.6984L0.527588 38.2407C0.527588 39.5824 1.61512 40.6697 2.95665 40.6697H26.4989C27.8406 40.6697 28.9279 39.5821 28.9279 38.2407V14.6984C28.9279 13.3566 27.8404 12.2694 26.4989 12.2694ZM15.4505 27.9164C13.3274 27.9164 12.3626 25.8647 12.3626 23.963C12.3626 20.9685 13.9851 19.9023 15.5029 19.9023C17.3655 19.9023 18.617 21.5222 18.617 23.935C18.617 26.6872 17.025 27.9164 15.4505 27.9164ZM22.6172 23.8822C22.6172 19.3942 20.0576 16.3792 16.2508 16.3792C14.0361 16.3792 12.7541 17.3837 12.1356 18.0769C12.0614 17.4792 11.6714 16.7038 10.1478 16.7038H6.83878V20.199H8.195C8.42491 20.199 8.49913 20.2724 8.49913 20.5044V36.465H12.4427L12.4427 30.4746C12.4427 30.3131 12.4397 30.1618 12.4354 30.0267C13.0509 30.5965 14.2281 31.3836 16.066 31.3836C19.9207 31.3836 22.6172 28.2996 22.6172 23.8822Z" fill="#147737"/>
<path fill-rule="evenodd" clip-rule="evenodd" d="M39.3487 19.9171C40.0473 19.1348 41.4954 18.0012 43.9972 18.0012C48.2971 18.0012 51.1884 21.4037 51.1884 26.4686C51.1884 31.4539 48.1426 34.9344 43.7884 34.9344C41.7124 34.9344 40.3826 34.046 39.6873 33.403C39.6923 33.5554 39.6956 33.7261 39.6956 33.9084V40.6687H35.2411V22.6567C35.2411 22.3948 35.1573 22.312 34.8976 22.312H33.3656V18.3675H37.1034C38.8244 18.3675 39.2649 19.2426 39.3487 19.9171ZM43.1523 21.9772C41.4379 21.9772 39.6052 23.1804 39.6052 26.5597C39.6052 28.706 40.6949 31.0213 43.0931 31.0213C44.8716 31.0213 46.6698 29.6341 46.6698 26.5283C46.6698 23.8052 45.2562 21.9772 43.1523 21.9772Z" fill="#147737"/>
<path d="M57.1704 30.3108V20.7661C57.1704 19.1535 56.3995 18.3679 54.8199 18.3679H50.8388V22.3123H52.3724C52.6305 22.3123 52.7143 22.3969 52.7143 22.6571V32.1686C52.7143 33.806 53.4605 34.5668 55.0599 34.5668H59.0459V30.6572H57.5123C57.2657 30.6572 57.1704 30.5577 57.1704 30.3108Z" fill="#147737"/>
<path fill-rule="evenodd" clip-rule="evenodd" d="M64.1567 19.9171C64.8585 19.1348 66.3034 18.0012 68.8084 18.0012C73.1067 18.0012 75.9963 21.4037 75.9963 26.4686C75.9963 31.4539 72.9539 34.9344 68.598 34.9344C66.5237 34.9344 65.189 34.046 64.497 33.403C64.5018 33.5554 64.5068 33.7261 64.5068 33.9084V40.6687H60.049V22.6567C60.049 22.3948 59.9652 22.312 59.7072 22.312H58.1752V18.3675H61.9147C63.6356 18.3675 64.0745 19.2426 64.1567 19.9171ZM64.4131 26.5597C64.4131 28.706 65.5078 31.0213 67.8994 31.0213C69.6829 31.0213 71.4794 29.6341 71.4794 26.5283C71.4794 23.8052 70.0658 21.9772 67.9619 21.9772C66.2459 21.9772 64.4131 23.1804 64.4131 26.5597Z" fill="#147737"/>
<path fill-rule="evenodd" clip-rule="evenodd" d="M76.2237 26.4694C76.2237 21.4841 79.5801 18.002 84.3797 18.002C88.66 18.002 91.5365 21.0979 91.5365 25.7053C91.5365 26.1727 91.4494 27.129 91.4411 27.1688L91.4165 27.4638H80.8523C81.2386 29.6184 82.8725 30.9922 85.1046 30.9922C87.3509 30.9922 89.0698 29.4665 89.2025 29.3487C89.2072 29.3445 89.2099 29.3421 89.2106 29.3416L89.4982 29.0664L91.4395 32.3132L91.2603 32.4922C91.1545 32.5954 88.7568 34.9351 84.8351 34.9351C79.8447 34.9351 76.2237 31.3735 76.2237 26.4694ZM84.3797 21.6398C82.7098 21.6398 81.5016 22.5415 81.0184 24.1309H86.9357C86.7533 22.6691 85.721 21.6398 84.3797 21.6398Z" fill="#147737"/>
<path fill-rule="evenodd" clip-rule="evenodd" d="M107.74 14.667V30.3107C107.74 30.5576 107.835 30.6571 108.082 30.6571H109.582V34.5668H105.723C104.056 34.5668 103.607 33.6818 103.517 32.9823C102.825 33.7845 101.408 34.9347 98.9508 34.9347C94.6508 34.9347 91.7612 31.5338 91.7612 26.469C91.7612 21.4836 94.7774 18.0016 99.1004 18.0016C101.311 18.0016 102.595 18.7888 103.252 19.3871V16.5597C103.252 16.2978 103.169 16.2149 102.91 16.2149H101.377V12.2688H105.358C106.959 12.2688 107.74 13.0544 107.74 14.667ZM96.306 26.469C96.306 29.2334 97.6769 31.0217 99.7956 31.0217C101.51 31.0217 103.344 29.8201 103.344 26.4391C103.344 24.2166 102.265 21.9775 99.8564 21.9775C97.7328 21.9775 96.306 23.7808 96.306 26.469Z" fill="#147737"/>
<path d="M119.495 18.1539C117.641 18.1539 115.935 19.2328 114.922 20.9515V20.5819C114.922 19.1135 114.118 18.3677 112.54 18.3677H108.711V22.3121H110.243C110.501 22.3121 110.586 22.395 110.586 22.6568V34.5666H115.041V28.0847C115.041 27.2312 115.149 26.4091 115.359 25.6484C116.03 23.4126 117.812 22.6171 119.253 22.6171C119.765 22.6171 120.136 22.6718 120.143 22.6734L120.514 22.7298V18.2649L120.243 18.2185C120.23 18.2152 119.852 18.1539 119.495 18.1539Z" fill="#147737"/>
<path d="M126.855 30.3108V20.7661C126.855 19.1535 126.087 18.3679 124.508 18.3679H120.907V22.3124H122.057C122.317 22.3124 122.399 22.397 122.399 22.6572V32.1686C122.399 33.8061 123.147 34.5668 124.75 34.5668H128.732V30.6572H127.197C126.951 30.6572 126.855 30.5577 126.855 30.3108Z" fill="#147737"/>
<path d="M143.673 18.3679H141.296C139.907 18.3679 139.162 18.8535 138.721 20.0452L135.817 28.2242C135.717 28.5275 135.623 28.8672 135.542 29.1937C135.459 28.8672 135.358 28.5225 135.248 28.2192L132.344 20.0435C131.898 18.8386 131.178 18.3679 129.772 18.3679H127.243V22.3124H127.899C128.248 22.3124 128.36 22.4318 128.442 22.6506L132.937 34.5669H137.947L142.443 22.6506C142.525 22.4318 142.64 22.3124 142.988 22.3124H143.673V18.3679Z" fill="#147737"/>
<path fill-rule="evenodd" clip-rule="evenodd" d="M143.19 26.4694C143.19 21.4841 146.546 18.002 151.344 18.002C155.627 18.002 158.505 21.0979 158.505 25.7053C158.505 26.1727 158.415 27.129 158.41 27.1688L158.385 27.4638H147.818C148.204 29.6184 149.838 30.9922 152.072 30.9922C154.389 30.9922 156.159 29.3565 156.175 29.3416L156.47 29.0664L158.407 32.3132L158.226 32.4922C158.125 32.5916 155.726 34.9351 151.799 34.9351C146.809 34.9351 143.19 31.3735 143.19 26.4694ZM151.344 21.6398C149.675 21.6398 148.472 22.5415 147.984 24.1309H153.901C153.719 22.6691 152.688 21.6398 151.344 21.6398Z" fill="#147737"/>
<path d="M56.8662 12.2699H52.895V16.4878H56.8662V12.2699Z" fill="#147737"/>
<path d="M126.553 12.2699H122.58V16.4878H126.553V12.2699Z" fill="#147737"/>
</g>
<defs>
<clipPath id="clip0_145_74">
<rect width="29.1404" height="48.5673" fill="white" transform="translate(0.527405 0.717285)"/>
</clipPath>
</defs>
</svg>
