<svg width="52" height="29" viewBox="0 0 52 29" fill="none" xmlns="http://www.w3.org/2000/svg">
<path fill-rule="evenodd" clip-rule="evenodd" d="M15.254 15.5797L19.8067 0.568617H23.8688L19.3159 15.5797H15.254ZM13.4382 0.572716L9.78413 6.93594C8.85393 8.6025 8.31022 9.44428 8.04876 10.4974H7.99313C8.05784 9.16232 7.87162 7.52328 7.85405 6.59689L7.45059 0.572716H0.61275L0.54248 0.976474C2.29923 0.976474 3.34098 1.85895 3.62762 3.664L4.9604 15.5797H9.16868L17.6778 0.572716H13.4382ZM45.0277 15.5797L44.9155 13.3472L39.8432 13.3431L38.8059 15.5794H34.3958L42.3922 0.597018H47.8054L49.1595 15.5794L45.0277 15.5797ZM44.5618 6.72513C44.5167 5.61575 44.479 4.10992 44.5545 3.19876H44.4945C44.2474 3.94391 43.1854 6.18171 42.7184 7.28231L41.207 10.5727H44.7685L44.5618 6.72513ZM28.1333 16.0063C25.2654 16.0063 23.3623 15.0966 22.0035 14.2856L23.9385 11.3304C25.1583 12.0126 26.116 12.8 28.3195 12.8C29.0281 12.8 29.7109 12.6158 30.0985 11.9444C30.6636 10.968 29.9683 10.4427 28.3813 9.54441L27.5978 9.03496C25.2455 7.42754 24.2281 5.90092 25.3354 3.23594C26.044 1.53131 27.9129 0.239227 30.9959 0.239227C33.1222 0.239227 35.1155 1.15888 36.277 2.05746L34.0524 4.66652C32.919 3.74979 31.9794 3.28601 30.9043 3.28601C30.047 3.28601 29.3958 3.61657 29.171 4.06249C28.7479 4.90075 29.3077 5.47228 30.5439 6.23968L31.4755 6.83229C34.3314 8.63354 35.0119 10.5223 34.296 12.2882C33.0651 15.3276 30.6548 16.0063 28.1333 16.0063ZM4.26971 28.6353C14.7739 24.1336 29.5127 20.0533 49.033 24.1389L49.2377 19.1878C28.6428 16.9391 13.865 23.4985 4.26971 28.1472V28.6353ZM50.2707 2.89045H50.0031V1.26312H50.6205C51.0135 1.26312 51.214 1.40073 51.214 1.731C51.214 2.02554 51.0328 2.14735 50.7892 2.17487L51.2451 2.89045H50.9426L50.5222 2.19478H50.2707V2.89045ZM50.569 1.96669C50.7699 1.96669 50.9464 1.94708 50.9464 1.71109C50.9464 1.51462 50.7538 1.49091 50.593 1.49091H50.2704V1.96669H50.569ZM50.5611 3.51936C49.7164 3.51936 49.115 2.88664 49.115 2.04926C49.115 1.16474 49.7829 0.579157 50.5611 0.579157C51.332 0.579157 51.9999 1.16474 51.9999 2.04926C51.9999 2.93349 51.332 3.51936 50.5611 3.51936ZM50.5611 0.834764C49.9246 0.834764 49.4295 1.33368 49.4295 2.04926C49.4295 2.71741 49.8619 3.26376 50.5611 3.26376C51.19 3.26376 51.6854 2.76865 51.6854 2.04926C51.6854 1.33368 51.19 0.834764 50.5611 0.834764Z" fill="#181818"/>
</svg>
