<svg width="45" height="21" viewBox="0 0 45 21" fill="none" xmlns="http://www.w3.org/2000/svg">
<path d="M0.946899 16.4701L5.46458 9.44047H1.48208C1.44833 9.23797 1.43386 9.01619 1.43386 8.7703C1.43386 8.53405 1.44833 8.31708 1.48208 8.1194H7.92833L8.0103 8.33637L3.45887 15.3805H7.72583C7.75958 15.6023 7.77405 15.8337 7.77405 16.0651C7.77405 16.2869 7.75958 16.4991 7.72583 16.7016H1.02886L0.946899 16.4701Z" fill="#FF4A00"/>
<path d="M13.9841 11.0461C13.9841 10.3856 13.8153 9.93235 13.4827 9.672C13.15 9.41646 12.663 9.28628 12.0266 9.28628C11.636 9.28628 11.2696 9.31521 10.9321 9.37789C10.5898 9.44057 10.2619 9.51771 9.93408 9.61896C9.72194 9.25253 9.61587 8.80896 9.61587 8.29789C9.99676 8.17735 10.4114 8.08092 10.8694 8.01342C11.3275 7.94592 11.7662 7.91217 12.1905 7.91217C13.3043 7.91217 14.1528 8.16771 14.7362 8.67396C15.3148 9.18021 15.6089 9.99503 15.6089 11.1088V16.4799C15.2184 16.5666 14.7459 16.6631 14.1866 16.7547C13.6273 16.8511 13.0584 16.8945 12.4798 16.8945C11.935 16.8945 11.4384 16.8463 10.9996 16.745C10.5609 16.6438 10.1848 16.4847 9.87622 16.2581C9.56765 16.0363 9.3314 15.7518 9.16265 15.4047C8.9939 15.0575 8.91194 14.6381 8.91194 14.1511C8.91194 13.6738 9.00837 13.2495 9.20605 12.8879C9.3989 12.5263 9.66408 12.2225 10.0016 11.9863C10.3343 11.7452 10.72 11.5668 11.1587 11.4511C11.5927 11.3354 12.0507 11.2727 12.5328 11.2727C12.8896 11.2727 13.1837 11.2824 13.4103 11.2968C13.6369 11.3113 13.8298 11.3354 13.9889 11.3547V11.0461H13.9841ZM13.9841 12.6709C13.8153 12.6468 13.6032 12.6275 13.3477 12.6034C13.0921 12.5793 12.8752 12.5697 12.6968 12.5697C12.0025 12.5697 11.4769 12.6999 11.1153 12.9554C10.7537 13.2109 10.5705 13.6015 10.5705 14.127C10.5705 14.4597 10.6332 14.7249 10.7537 14.9129C10.8743 15.1009 11.0285 15.2456 11.2118 15.3468C11.395 15.4481 11.5975 15.5108 11.8241 15.53C12.0459 15.5541 12.258 15.5638 12.4605 15.5638C12.716 15.5638 12.9812 15.5493 13.256 15.5204C13.5309 15.4915 13.7719 15.4529 13.9841 15.395V12.6709Z" fill="#FF4A00"/>
<path d="M17.4169 8.11977C17.5278 8.09566 17.6435 8.08119 17.7592 8.07155C17.8749 8.06191 17.9955 8.05709 18.1208 8.05709C18.2317 8.05709 18.3474 8.06191 18.4728 8.07155C18.5933 8.08119 18.7139 8.10048 18.8248 8.11977C18.8344 8.14387 18.8489 8.21137 18.8682 8.32709C18.8826 8.4428 18.9019 8.56816 18.9164 8.70316C18.9308 8.83816 18.9501 8.96352 18.9646 9.08887C18.9791 9.21423 18.9887 9.29137 18.9887 9.32512C19.0996 9.14673 19.2346 8.97316 19.3889 8.80441C19.5432 8.63566 19.7312 8.4862 19.9482 8.3512C20.1651 8.2162 20.411 8.11012 20.6858 8.03298C20.9607 7.95584 21.2644 7.91727 21.5971 7.91727C22.0985 7.91727 22.5662 7.99923 22.9953 8.16798C23.4244 8.33673 23.7908 8.59227 24.0994 8.94423C24.408 9.2962 24.6442 9.74459 24.8178 10.2846C24.9914 10.8246 25.0782 11.4658 25.0782 12.2035C25.0782 13.6789 24.678 14.8312 23.8824 15.6605C23.0821 16.4898 21.9539 16.9092 20.493 16.9092C20.2471 16.9092 19.9964 16.8948 19.7408 16.861C19.4853 16.8273 19.2587 16.7839 19.0707 16.726V20.6603C18.9357 20.6844 18.7958 20.6989 18.6416 20.7085C18.4921 20.7182 18.3523 20.723 18.2317 20.723C18.1112 20.723 17.9714 20.7182 17.8219 20.7085C17.6724 20.6989 17.5326 20.6796 17.4121 20.6603V8.11977H17.4169ZM19.0755 15.2989C19.2876 15.376 19.5046 15.4339 19.7264 15.4676C19.9482 15.5014 20.2374 15.5158 20.5991 15.5158C20.9992 15.5158 21.3705 15.4532 21.7032 15.323C22.0358 15.1928 22.3251 14.9951 22.5662 14.7299C22.8073 14.4599 22.9953 14.1224 23.1351 13.7174C23.2749 13.3124 23.3424 12.8255 23.3424 12.271C23.3424 11.3791 23.1785 10.6703 22.8507 10.1448C22.5228 9.61923 21.9828 9.35887 21.2355 9.35887C20.9558 9.35887 20.6907 9.40709 20.4303 9.50834C20.1748 9.60959 19.9433 9.75905 19.7457 9.96155C19.5432 10.1641 19.3841 10.4148 19.2587 10.7233C19.1333 11.0319 19.0755 11.3935 19.0755 11.8178V15.2989Z" fill="#FF4A00"/>
<path d="M27.1417 9.42119H26.0521C26.028 9.32958 26.0135 9.22833 26.0039 9.11262C25.9942 8.9969 25.9894 8.88119 25.9894 8.7703C25.9894 8.6594 25.9942 8.54369 26.0039 8.42797C26.0135 8.31226 26.0328 8.20619 26.0521 8.1194H28.7666V16.7064C28.646 16.7305 28.5062 16.7449 28.3567 16.7546C28.2073 16.7642 28.0674 16.7691 27.9469 16.7691C27.836 16.7691 27.7058 16.7642 27.5515 16.7546C27.4021 16.7449 27.2623 16.7257 27.1417 16.7064V9.42119Z" fill="#FF4A00"/>
<path d="M32.3296 12.8205C32.3537 13.7559 32.5948 14.4453 33.0576 14.8793C33.5205 15.3132 34.2051 15.5302 35.1067 15.5302C35.8974 15.5302 36.6544 15.3903 37.368 15.1107C37.4596 15.2794 37.5319 15.4819 37.5849 15.723C37.6428 15.9641 37.6717 16.2003 37.6862 16.4366C37.3198 16.5909 36.9148 16.7114 36.4712 16.7886C36.0324 16.8657 35.5407 16.9043 35.0055 16.9043C34.2244 16.9043 33.5542 16.7934 32.9949 16.5764C32.4357 16.3594 31.9776 16.0509 31.616 15.6555C31.2544 15.2602 30.9892 14.7925 30.8205 14.2477C30.6517 13.7077 30.5698 13.1146 30.5698 12.4637C30.5698 11.8273 30.6517 11.2343 30.8108 10.6798C30.9699 10.1253 31.2207 9.64801 31.5533 9.23819C31.886 8.83319 32.3103 8.50533 32.8165 8.26908C33.3228 8.02801 33.9255 7.90747 34.6149 7.90747C35.208 7.90747 35.7239 8.00872 36.1723 8.21122C36.6207 8.41372 36.9919 8.68854 37.2957 9.04051C37.5946 9.39247 37.826 9.81194 37.9803 10.2941C38.1346 10.781 38.2165 11.3066 38.2165 11.8755C38.2165 12.0298 38.2117 12.1985 38.1973 12.3673C38.1876 12.5409 38.1732 12.6903 38.1635 12.8109H32.3296V12.8205ZM36.5821 11.5814C36.5821 11.268 36.5387 10.9691 36.4567 10.6846C36.3748 10.4002 36.2494 10.1543 36.0903 9.94212C35.9264 9.72997 35.7239 9.56122 35.4732 9.43105C35.2224 9.30087 34.9235 9.23819 34.5764 9.23819C33.8965 9.23819 33.3758 9.44551 33.0094 9.85533C32.6478 10.27 32.426 10.8437 32.3489 11.5814H36.5821Z" fill="#FF4A00"/>
<path d="M40.0487 8.1194C40.1693 8.0953 40.2898 8.08083 40.4007 8.07119C40.5116 8.06155 40.6273 8.05672 40.7527 8.05672C40.8732 8.05672 40.9986 8.06155 41.1191 8.07119C41.2396 8.08083 41.3553 8.10012 41.4518 8.1194C41.4855 8.28815 41.5193 8.50512 41.553 8.77994C41.5868 9.05476 41.6012 9.28619 41.6012 9.47423C41.8375 9.09333 42.146 8.76547 42.5318 8.48583C42.9175 8.20619 43.4093 8.06637 44.0119 8.06637C44.1035 8.06637 44.1952 8.07119 44.2868 8.07601C44.3832 8.08083 44.4603 8.09047 44.5278 8.10012C44.5519 8.20137 44.5664 8.30744 44.576 8.41833C44.5857 8.52922 44.5905 8.64494 44.5905 8.7703C44.5905 8.9053 44.5809 9.04512 44.5664 9.18976C44.5519 9.3344 44.5278 9.47423 44.5086 9.60923C44.4169 9.58512 44.3253 9.57547 44.2337 9.57547C44.1373 9.57547 44.065 9.57547 44.0071 9.57547C43.7082 9.57547 43.4189 9.61887 43.1441 9.70083C42.8693 9.7828 42.6234 9.93226 42.4064 10.1444C42.1894 10.3565 42.0159 10.6458 41.8857 11.0171C41.7555 11.3835 41.6928 11.8608 41.6928 12.4394V16.7064C41.5723 16.7305 41.4325 16.7449 41.283 16.7546C41.1335 16.7642 40.9937 16.7691 40.8732 16.7691C40.7527 16.7691 40.6128 16.7642 40.4634 16.7546C40.3139 16.7449 40.1693 16.7257 40.0343 16.7064V8.1194H40.0487Z" fill="#FF4A00"/>
<path d="M30.3431 3.06673H28.7231L29.8706 1.91923C29.779 1.79387 29.6777 1.67334 29.5717 1.56244C29.4608 1.45155 29.3451 1.3503 29.2149 1.26351L28.0674 2.41101V0.791013C27.9179 0.766906 27.7636 0.752441 27.6045 0.752441H27.5997C27.4406 0.752441 27.2863 0.766906 27.1368 0.791013V2.41101L25.9893 1.26351C25.864 1.35512 25.7434 1.45637 25.6326 1.56244C25.5217 1.67334 25.4252 1.78905 25.3336 1.91923L26.4859 3.06673H24.8659C24.8659 3.06673 24.8274 3.37048 24.8274 3.52959C24.8274 3.68869 24.8418 3.84298 24.8659 3.99244H26.4859L25.3384 5.13995C25.5168 5.39066 25.7386 5.61245 25.9942 5.79566L27.1417 4.64816V6.26816C27.2911 6.29227 27.4454 6.30673 27.6045 6.30673H27.6093C27.7684 6.30673 27.9227 6.29227 28.0722 6.26816V4.64816L29.2197 5.79566C29.3451 5.70405 29.4656 5.6028 29.5765 5.49673C29.6874 5.38584 29.7886 5.27012 29.8754 5.13995L28.7279 3.99244H30.3479C30.372 3.84298 30.3865 3.68869 30.3865 3.52959V3.52477C30.3817 3.37048 30.372 3.21619 30.3431 3.06673ZM28.2988 3.53441C28.2988 3.74173 28.2602 3.93941 28.1927 4.12262C28.0095 4.19012 27.8118 4.22869 27.6045 4.22869C27.3972 4.22869 27.1995 4.19012 27.0163 4.12262C26.9488 3.93941 26.9102 3.74173 26.9102 3.53441V3.52959C26.9102 3.32226 26.9488 3.12459 27.0163 2.94137C27.1995 2.87387 27.3972 2.8353 27.6045 2.8353C27.8118 2.8353 28.0095 2.87387 28.1927 2.94137C28.2602 3.12459 28.2988 3.32226 28.2988 3.53441Z" fill="#FF4A00"/>
</svg>
